<svg preserveAspectRatio="none" width="100%" height="100%" overflow="visible" style="display: block;" viewBox="0 0 60.3792 79.5" fill="none" xmlns="http://www.w3.org/2000/svg">
<g id="Group">
<path id="Vector" d="M18.1292 24.25C23.6521 24.25 28.1292 19.7728 28.1292 14.25C28.1292 8.72715 23.6521 4.25 18.1292 4.25C12.6064 4.25 8.12921 8.72715 8.12921 14.25C8.12921 19.7728 12.6064 24.25 18.1292 24.25Z" fill="white" stroke="#CB4587" stroke-width="4.5" stroke-linecap="round" stroke-linejoin="round"/>
<g id="Vector_2">
<path d="M10.1292 27.25C0.129208 37.25 -0.870792 56.25 10.1292 69.25C17.1292 77.25 32.1292 75.25 38.1292 64.25" fill="white"/>
<path d="M10.1292 27.25C0.129208 37.25 -0.870792 56.25 10.1292 69.25C17.1292 77.25 32.1292 75.25 38.1292 64.25" stroke="#CB4587" stroke-width="4.5" stroke-linecap="round" stroke-linejoin="round"/>
</g>
<path id="Vector_3" d="M32.1292 32.25C41.1292 37.25 47.1292 46.25 47.1292 57.25C47.1292 69.25 38.1292 77.25 26.1292 77.25" stroke="#CB4587" stroke-width="4.5" stroke-linecap="round" stroke-linejoin="round"/>
<path id="Vector_4" d="M31.1292 52.25C35.5475 52.25 39.1292 48.6683 39.1292 44.25C39.1292 39.8317 35.5475 36.25 31.1292 36.25C26.7109 36.25 23.1292 39.8317 23.1292 44.25C23.1292 48.6683 26.7109 52.25 31.1292 52.25Z" fill="white" stroke="#CB4587" stroke-width="4.5" stroke-linecap="round" stroke-linejoin="round"/>
<path id="Vector_5" d="M18.1292 69.25C23.1292 53.25 32.1292 49.25 41.1292 57.25" stroke="#CB4587" stroke-width="4.5" stroke-linecap="round" stroke-linejoin="round"/>
<path id="Vector_6" d="M42.1292 10.25H58.1292" stroke="#CB4587" stroke-width="4.5" stroke-linecap="round" stroke-linejoin="round"/>
<path id="Vector_7" d="M50.1292 2.25V18.25" stroke="#CB4587" stroke-width="4.5" stroke-linecap="round" stroke-linejoin="round"/>
</g>
</svg>
